<?xml version="1.0" encoding="utf-8"?>
<!-- Uploaded to: SVG Repo, www.svgrepo.com, Generator: SVG Repo Mixer Tools -->
<svg fill="#000000" version="1.1" id="Layer_1" xmlns="http://www.w3.org/2000/svg" xmlns:xlink="http://www.w3.org/1999/xlink" 
	 width="800px" height="800px" viewBox="0 0 256 173" enable-background="new 0 0 256 173" xml:space="preserve">
<path d="M62.468,73.815c6.637-5.836,7.464-16.004,1.603-22.766l0,0c-5.836-6.637-16.004-7.464-22.766-1.603L39,51.45
	l-2.304-2.004c-6.637-5.836-16.931-5.034-22.766,1.603l0,0c-5.861,6.662-5.034,16.931,1.603,22.766l23.092,23.668L62.468,73.815z"/>
<g id="shopping_cart">
</g>
<path d="M128.253,56.864c15.186,0,27.432-12.247,27.432-27.432S143.536,2,128.253,2
	c-15.186,0-27.432,12.247-27.432,27.432C100.918,44.716,113.165,56.864,128.253,56.864z M64.571,136.32h-49.28
	c-15.969,0-16.851-24.395,0.294-24.395H58.3l24.493-36.054c7.25-9.895,15.48-14.598,27.138-14.598h36.544
	c11.659,0,19.888,4.311,27.138,14.598l24.591,36.054h43.01c17.243,0,16.165,24.395,0.588,24.395h-49.28
	c-3.919,0-8.622-1.372-11.365-5.584l-18.811-26.844l-0.098,67.209H94.844l-0.098-67.209l-18.811,26.844
	C73.192,134.85,68.49,136.32,64.571,136.32z"/>
<path d="M248.541,55.325c-0.688-1.321-1.523-2.251-2.506-2.79c-0.049-1.419-0.688-2.594-1.72-3.622
	c-1.228-1.224-2.85-1.86-4.618-1.86c-2.014-2.349-6.927-3.768-11.005-3.132c-2.014-0.979-4.618-0.93-6.387-0.93
	c-0.246,0-0.442,0-0.688,0h-0.246c-2.113,0-5.797-0.049-7.812,1.713c-1.965-0.783-5.061-0.44-7.566,0.294
	c-3.095,0.979-5.257,2.496-6.043,4.307c-2.014,0.489-4.569,2.3-6.092,4.503c-1.179,1.713-2.309,4.307-1.277,7.537
	c-1.179,3.034-0.54,6.313,1.72,8.907c2.309,2.692,5.797,3.866,8.893,3.034c1.72,0.196,2.997,0.098,3.881-0.098
	c0.197,1.517,0.786,3.475,2.506,4.845c0.688,1.566,2.014,2.741,3.734,3.23c1.965,0.538,4.127,0.196,5.748-0.93
	c0.59-0.049,1.277-0.098,2.014-0.245c-0.098,1.224,0,2.349,0.295,3.328c0.098,1.028,1.032,6.558,6.534,9.201
	c5.601,2.692,5.355,4.307,5.355,4.796c0,1.615,1.867,2.545,3.734,2.594c0.049,0,0.098,0,0.246,0c1.867,0,3.243-1.028,3.341-2.545
	c0.246-3.23-0.295-3.817-2.653-6.558c-0.786-0.93-1.277-2.545-1.572-3.622c1.081-0.245,2.064-0.587,2.997-1.077
	c1.425,0,2.8-0.538,3.832-1.566c1.032-1.028,1.621-2.3,1.72-3.768c3.341-2.3,5.011-7.439,4.029-12.627
	C250.506,64.624,250.31,58.898,248.541,55.325z M243.186,79.062c-0.442,0.245-0.688,0.685-0.59,1.077
	c0.049,1.028-0.295,2.007-0.983,2.692c-0.59,0.587-1.425,0.93-2.211,0.93c-3.243-1.224-3.095-3.817-3.046-4.111
	c0.049-0.685-0.442-1.272-1.081-1.321c-0.639-0.049-1.277,0.44-1.327,1.077c-0.197,1.272,0.246,3.72,2.457,5.481
	c-1.523,0.44-3.488,0.587-6.092,0.587c-2.948,0-4.913-0.587-5.896-1.86c-0.737-0.93-0.933-2.251-0.59-3.866
	c3.587-0.685,4.766,0.979,4.815,1.077c0.246,0.343,0.59,0.587,1.032,0.587c0.197,0,0.442-0.049,0.59-0.196
	c0.59-0.294,0.786-1.077,0.491-1.615c-0.049-0.098-2.113-3.524-8.156-2.104l0,0c-1.228,0.245-2.309,0.343-3.243,0.44
	c-2.604-3.083-0.737-5.286-0.491-5.53c0.491-0.489,0.442-1.272-0.049-1.713c-0.491-0.489-1.277-0.44-1.72,0
	c-1.277,1.272-2.702,4.552-0.098,8.124c-0.835,0.294-1.867,0.343-2.751,0.098c-0.786-0.245-1.769-0.734-2.26-2.056
	c-0.049-0.245-0.246-0.44-0.442-0.538c-2.211-1.615-1.867-4.6-1.818-5.09c0.442-1.224,1.769-3.964,5.552-5.041
	c1.72-0.489,3.095-0.196,4.815,0.098c0.491,0.098,1.032,0.196,1.572,0.294c0.59,4.356,5.257,6.02,5.404,6.118
	c0.098,0.049,0.246,0.049,0.442,0.049c0.491,0,0.983-0.294,1.179-0.783c0.246-0.587-0.098-1.321-0.737-1.517
	c-0.049,0-2.997-1.077-3.734-3.622c4.029-0.098,5.503-3.132,5.65-4.796c0.049-0.685-0.344-1.272-1.032-1.321
	s-1.277,0.343-1.327,1.028c-0.049,0.245-0.491,2.692-3.537,2.692c-1.228,0-2.309-0.245-3.341-0.44
	c-1.818-0.343-3.734-0.734-5.945-0.049c-2.8,0.783-4.569,2.349-5.65,3.817c-0.786-1.077-1.965-1.762-2.948-2.3
	c-0.688-0.343-1.327-0.734-1.769-1.224c-1.081-1.077,0.197-3.328,0.197-3.328c0.344-0.538,0.197-1.321-0.442-1.615
	c-0.737-0.538-1.474-0.343-1.818,0.245c-0.835,1.468-1.818,4.356,0.197,6.362c0.688,0.685,1.523,1.175,2.309,1.566
	c1.621,0.93,2.555,1.517,2.555,3.083c-0.295,0.196-1.228,0.685-3.881,0.343c-0.197,0-0.295,0-0.491,0.049
	c-2.26,0.685-4.815-0.245-6.633-2.251c-1.769-2.007-2.211-4.552-1.179-6.803c0.098-0.294,0.098-0.587,0-0.93
	c-0.934-2.447-0.049-4.454,0.835-5.775c0.786-1.175,1.867-2.056,2.8-2.692c0.295,0.196,0.59,0.245,0.983,0.196
	c3.095-0.783,5.159,2.79,5.306,2.985c0.246,0.44,0.59,0.587,1.032,0.587c0.197,0,0.442-0.049,0.59-0.196
	c0.59-0.294,0.786-1.077,0.491-1.615c-0.098-0.196-1.818-3.23-4.864-4.111c0.442-1.175,2.113-2.3,4.569-3.034
	c3.144-0.979,5.65-0.734,6.191-0.294c1.867,2.692,0.737,4.209-0.737,6.118c-0.295,0.44-0.59,0.783-0.933,1.224
	c-2.457,3.622-0.688,6.362,0.688,7.341c0.246,0.196,0.491,0.245,0.737,0.245c0.344,0,0.737-0.196,0.983-0.489
	c0.442-0.538,0.295-1.272-0.246-1.713c-0.295-0.245-1.769-1.566-0.049-4.062c0.246-0.343,0.54-0.734,0.786-1.077
	c1.425-1.811,3.537-4.503,1.277-8.271c1.425-0.979,4.618-0.979,5.945-0.93h0.246c0.197,0,0.442,0,0.688,0
	c1.621,0,4.127,0,5.601,0.783c0.246,0.098,0.54,0.196,0.835,0.098c3.488-0.685,7.419,0.685,8.893,2.056
	c-0.688,1.321-1.818,4.307-1.179,7.096c0.737,3.279,0.835,4.111-1.818,5.09c-0.59,0.245-0.983,0.93-0.737,1.566
	c0.197,0.489,0.688,0.783,1.179,0.783c0.098,0,0.295,0,0.442-0.049c1.769-0.685,2.8-1.517,3.341-2.496
	c0.295,0.098,0.491,0.294,0.688,0.538c0.835,1.077,0.737,3.083,0.688,3.768c-0.098,0.685,0.344,1.272,1.032,1.419
	c0.049,0,0.098,0,0.197,0c0.59,0,1.081-0.44,1.228-1.028c0.049-0.343,0.491-3.524-1.179-5.628c-0.54-0.734-1.277-1.224-2.113-1.517
	c-0.049-0.979-0.246-2.007-0.491-3.034c-0.491-2.104,0.491-4.503,0.983-5.53c1.081,0.049,2.064,0.489,2.8,1.175
	c0.737,0.734,1.032,1.713,0.983,2.692c-0.049,0.587,0.344,1.224,0.983,1.321c0.59,0.098,1.277,0.783,1.769,1.811
	c1.425,2.839,1.572,7.782,0.442,10.669c0,0.049-0.049,0.049-0.049,0.049c-1.081,1.566-2.506,1.615-4.864,1.615
	c-0.786,0-1.523,0-2.358,0.049c-3.734,0.343-5.503,4.062-5.552,4.258c-0.295,0.587,0,1.321,0.59,1.615
	c0.197,0.049,0.344,0.098,0.491,0.098c0.491,0,0.933-0.245,1.081-0.734c0,0,1.277-2.594,3.587-2.839
	c0.688-0.049,1.425-0.049,2.113-0.049c1.621,0,3.39,0,4.913-0.832C247.018,74.167,245.642,77.691,243.186,79.062z M232.033,56.01
	c0.295,0.636,0.098,1.37-0.442,1.713c-0.147,0.147-0.344,0.196-0.59,0.196c-0.442,0-0.786-0.196-1.032-0.538
	c-0.049-0.098-1.867-2.888-5.355-2.3c-0.295,0.44-0.688,0.881-1.228,1.175c-0.246,0.147-0.491,0.343-0.737,0.44
	c-2.113,1.272-2.85,1.811-2.604,3.132c0.098,0.685-0.295,1.321-0.983,1.419c-0.147,0-0.197,0-0.246,0
	c-0.639,0-1.13-0.44-1.228-1.028c-0.54-3.083,1.769-4.405,3.783-5.628c0.246-0.147,0.491-0.343,0.737-0.44
	c1.376-0.881,0.835-3.573,0.835-3.573c-0.098-0.685,0.246-1.37,0.933-1.468c0.688-0.098,1.376,0.245,1.474,0.93
	c0,0.147,0.197,1.224,0.098,2.496C228.839,52.535,231.198,54.738,232.033,56.01z"/>
<g id="cross">
</g>
<g id="leaf">
</g>
</svg>